<?xml version="1.0" standalone="no"?>
<!DOCTYPE svg PUBLIC "-//W3C//DTD SVG 20010904//EN"
 "http://www.w3.org/TR/2001/REC-SVG-20010904/DTD/svg10.dtd">
<svg version="1.0" xmlns="http://www.w3.org/2000/svg"
 width="432.000000pt" height="432.000000pt" viewBox="0 0 432.000000 432.000000"
 preserveAspectRatio="xMidYMid meet">
<metadata>
Created by potrace 1.11, written by Peter Selinger 2001-2013
</metadata>
<g transform="translate(0.000000,432.000000) scale(0.100000,-0.100000)"
fill="#000000" stroke="none">
<path d="M2050 3935 c-68 -14 -133 -37 -187 -67 -27 -14 -33 -15 -33 -3 0 20
-19 29 -35 15 -23 -19 -51 -118 -38 -131 12 -12 91 -14 125 -3 21 6 22 51 0
47 -6 -2 -12 1 -12 6 0 18 126 81 190 96 8 2 34 8 56 13 102 23 278 -5 374
-60 24 -13 29 -14 15 -3 -22 18 -135 76 -135 69 0 -3 -8 0 -17 5 -50 26 -208
34 -303 16z"/>
<path d="M2555 3810 c10 -11 20 -20 23 -20 3 0 -3 9 -13 20 -10 11 -20 20 -23
20 -3 0 3 -9 13 -20z"/>
<path d="M2597 3763 c-3 -4 34 -8 81 -9 88 0 146 -19 191 -61 9 -7 38 -35 66
-61 27 -26 38 -33 25 -17 -87 106 -170 151 -285 154 -40 1 -75 -2 -78 -6z"/>
<path d="M2550 3753 c-8 -4 -35 -15 -60 -26 -40 -18 -70 -20 -275 -22 -126 -1
-246 -5 -265 -9 -19 -4 -44 -9 -55 -11 -46 -8 -160 -37 -199 -50 -23 -8 -51
-16 -62 -18 -36 -7 -193 -81 -297 -141 -38 -22 -64 -28 -130 -31 -45 -3 -93
-7 -107 -10 -14 -2 -43 -7 -66 -10 -65 -9 -202 -49 -287 -85 -134 -56 -276
-161 -355 -265 -47 -60 -121 -225 -127 -280 -1 -5 -4 -23 -8 -40 -4 -16 -8
-47 -9 -68 -1 -21 -6 -41 -10 -43 -4 -3 -8 -1 -8 4 0 16 -30 23 -51 12 -33
-18 -22 -54 43 -140 94 -124 91 -124 164 -27 73 96 83 133 42 156 -25 15 -29
14 -54 -9 l-27 -25 7 45 c3 25 8 67 12 95 9 70 45 172 90 252 34 61 142 182
214 237 42 33 170 97 234 116 57 18 146 40 146 36 0 0 -4 -16 -9 -34 -6 -18
-6 -30 -1 -27 5 3 11 19 15 35 4 18 13 30 23 31 9 0 26 2 37 4 61 12 129 16
120 8 -5 -5 -36 -28 -67 -52 -31 -23 -73 -58 -93 -77 -20 -19 -41 -34 -46 -34
-5 0 -9 -4 -9 -9 0 -5 -21 -31 -47 -59 -65 -68 -87 -94 -137 -162 -24 -33 -47
-56 -51 -52 -5 4 -5 2 -2 -5 4 -6 2 -18 -5 -25 -28 -30 -130 -232 -162 -319
-15 -41 -30 -81 -33 -89 -4 -8 -7 -19 -8 -25 0 -5 -5 -28 -9 -49 -8 -35 -10
-37 -21 -22 -7 9 -19 46 -26 82 -7 35 -16 64 -20 64 -8 0 29 -150 41 -165 5
-6 5 -30 0 -55 -28 -155 -31 -187 -32 -370 0 -134 -3 -162 -23 -214 -12 -32
-24 -55 -27 -50 -3 5 -3 4 -2 -3 2 -7 -8 -56 -21 -110 -24 -93 -44 -234 -32
-223 3 3 7 28 10 55 7 59 45 233 55 249 3 6 7 17 8 23 3 21 37 104 40 100 5
-5 17 -105 17 -137 0 -14 -9 -44 -21 -68 -11 -24 -23 -57 -26 -75 -4 -18 5 -3
19 33 27 69 45 95 45 68 0 -21 47 -184 66 -228 52 -119 85 -185 131 -264 29
-49 50 -94 46 -100 -3 -6 -3 -8 2 -4 9 8 13 4 89 -92 85 -107 198 -215 311
-299 33 -25 64 -48 68 -52 14 -11 -107 4 -178 23 -22 5 -47 12 -55 13 -8 2
-43 15 -77 29 -168 70 -291 166 -377 296 -20 30 -36 51 -36 47 0 -22 100 -158
159 -218 118 -119 322 -228 473 -254 18 -3 49 -10 68 -15 20 -5 75 -13 122
-16 l87 -7 43 -71 c23 -39 48 -77 55 -84 7 -7 18 -21 25 -30 26 -34 96 -81
147 -98 28 -9 54 -14 57 -11 3 3 -10 8 -28 12 -54 12 -104 42 -156 94 -42 42
-112 145 -112 164 0 3 28 -6 63 -20 125 -51 146 -58 242 -82 126 -31 206 -44
282 -45 24 -1 43 -3 43 -6 0 -15 301 4 405 25 22 5 49 10 60 11 11 1 20 3 20
4 0 1 10 3 21 5 12 3 59 17 105 32 46 15 86 27 89 28 14 5 95 41 170 78 104
51 265 157 325 217 29 29 35 25 24 -16 -17 -59 -46 -121 -68 -143 -12 -12 -18
-21 -14 -21 14 0 -54 -63 -92 -86 -23 -13 -68 -30 -100 -39 l-60 -15 50 6 c67
8 130 42 192 103 29 28 52 53 51 54 -1 1 10 32 24 68 15 37 29 78 30 92 2 15
36 59 83 110 87 91 131 143 185 221 25 36 47 55 76 66 63 24 146 75 186 114
37 36 74 94 65 102 -2 3 -10 -9 -17 -26 -24 -58 -158 -158 -248 -185 l-22 -6
23 34 c43 63 108 205 142 307 13 40 24 59 29 52 15 -25 15 -142 0 -179 -22
-51 -9 -53 16 -1 27 56 34 155 14 211 -13 38 -13 104 1 126 2 5 7 26 9 47 3
22 9 64 13 94 4 30 6 72 6 93 -1 20 1 37 3 37 6 0 58 -111 59 -125 0 -5 2 -12
6 -15 10 -9 39 -96 64 -191 18 -66 24 -79 19 -44 -3 28 -21 95 -39 150 -31 93
-32 101 -18 128 23 45 43 107 35 107 -4 0 -13 -19 -19 -42 -7 -24 -18 -51 -26
-62 -12 -17 -16 -13 -44 47 -29 59 -32 77 -37 188 -3 68 -9 145 -14 172 -5 26
-6 47 -2 47 10 0 58 -60 92 -115 22 -35 51 -128 51 -162 0 -7 4 -10 7 -8 4 3
1 33 -7 67 -17 73 -60 150 -120 213 -7 8 -13 18 -13 23 0 6 -5 12 -10 14 -6 2
-13 14 -15 28 -3 14 -7 36 -10 49 -15 75 -87 262 -145 378 -73 144 -73 146 13
98 67 -38 130 -104 157 -167 14 -32 28 -58 32 -58 7 0 -14 49 -44 105 -26 47
-95 105 -176 145 -52 27 -81 48 -99 76 -69 102 -209 254 -317 342 -15 13 -26
25 -24 27 1 2 23 -1 48 -6 25 -5 57 -11 71 -13 89 -15 257 -114 347 -205 58
-59 130 -163 152 -221 7 -19 17 -39 20 -45 4 -5 13 -35 21 -65 17 -75 30 -87
14 -13 -46 208 -171 392 -347 509 -124 83 -236 124 -391 143 -59 7 -89 16
-127 41 -44 28 -68 60 -62 83 1 4 -24 7 -55 6 -45 -1 -76 6 -135 30 -42 17
-83 31 -90 31 -8 0 -18 4 -23 9 -10 9 -131 39 -195 48 -55 8 -54 18 2 37 29
11 57 23 63 27 10 10 -1 11 -25 2z"/>
<path d="M1370 3653 c0 -6 17 -10 38 -11 62 -2 136 -13 155 -23 11 -6 17 -6
17 0 0 10 -65 25 -157 36 -31 4 -53 3 -53 -2z"/>
<path d="M1245 3620 c-73 -36 -114 -73 -150 -134 -37 -63 -26 -58 18 8 38 58
97 104 160 127 20 7 37 17 37 21 0 11 4 12 -65 -22z"/>
<path d="M1328 3643 c6 -2 18 -2 25 0 6 3 1 5 -13 5 -14 0 -19 -2 -12 -5z"/>
<path d="M3050 3563 c0 -5 21 -9 48 -8 26 1 75 -4 110 -10 34 -7 62 -8 62 -3
0 4 -8 8 -17 9 -10 0 -27 2 -38 4 -53 11 -165 16 -165 8z"/>
<path d="M3288 3533 c7 -3 16 -2 19 1 4 3 -2 6 -13 5 -11 0 -14 -3 -6 -6z"/>
<path d="M3325 3530 c-3 -5 -1 -10 4 -10 6 0 11 5 11 10 0 6 -2 10 -4 10 -3 0
-8 -4 -11 -10z"/>
<path d="M3350 3520 c0 -5 8 -10 18 -10 41 0 167 -54 247 -105 104 -67 245
-225 269 -302 4 -13 11 -23 16 -23 11 0 -16 55 -46 97 -13 17 -24 34 -24 37 0
9 -40 55 -90 104 -83 82 -194 147 -324 192 -69 23 -66 23 -66 10z"/>
<path d="M1031 3304 c0 -11 3 -14 6 -6 3 7 2 16 -1 19 -3 4 -6 -2 -5 -13z"/>
<path d="M3900 3066 c0 -4 5 -16 11 -28 6 -11 13 -30 15 -43 2 -13 8 -34 13
-47 17 -41 12 7 -5 59 -15 44 -34 78 -34 59z"/>
<path d="M720 2940 c-9 -6 -10 -10 -3 -10 6 0 15 5 18 10 8 12 4 12 -15 0z"/>
<path d="M674 2914 c-18 -14 -18 -15 4 -4 12 6 22 13 22 15 0 8 -5 6 -26 -11z"/>
<path d="M3948 2915 c-7 -8 3 -65 12 -65 5 0 6 15 3 33 -5 35 -7 39 -15 32z"/>
<path d="M614 2872 c-16 -15 -41 -43 -55 -62 -29 -39 -63 -120 -51 -120 4 0
14 20 21 45 9 30 32 65 67 102 57 61 67 80 18 35z"/>
<path d="M3960 2801 c0 -23 4 -40 9 -37 5 4 7 21 4 39 -7 47 -13 46 -13 -2z"/>
<path d="M3959 2724 c-3 -16 -2 -42 1 -59 6 -28 7 -27 12 15 6 51 -7 92 -13
44z"/>
<path d="M501 2673 c0 -6 -4 -20 -7 -30 -5 -14 -4 -15 5 -7 7 7 11 20 8 30 -3
11 -5 14 -6 7z"/>
<path d="M3922 2625 c0 -16 2 -22 5 -12 2 9 2 23 0 30 -3 6 -5 -1 -5 -18z"/>
<path d="M3957 2624 c-4 -4 -7 -14 -7 -23 0 -11 3 -12 11 -4 6 6 10 16 7 23
-2 6 -7 8 -11 4z"/>
<path d="M497 2613 c-10 -9 -9 -23 1 -23 5 0 9 7 9 15 0 17 -1 18 -10 8z"/>
<path d="M3925 2580 c-3 -5 -1 -10 4 -10 6 0 11 5 11 10 0 6 -2 10 -4 10 -3 0
-8 -4 -11 -10z"/>
<path d="M3949 2568 c0 -7 -3 -26 -5 -43 -3 -16 -3 -27 0 -24 8 8 18 79 12 79
-3 0 -6 -6 -7 -12z"/>
<path d="M3915 2530 c-3 -5 -1 -10 4 -10 6 0 11 5 11 10 0 6 -2 10 -4 10 -3 0
-8 -4 -11 -10z"/>
<path d="M3913 2495 c-3 -9 -3 -18 -1 -21 3 -3 8 4 11 16 6 23 -1 27 -10 5z"/>
<path d="M3933 2473 c-3 -10 -8 -22 -11 -27 -3 -5 0 -6 5 -3 11 7 25 47 17 47
-3 0 -7 -8 -11 -17z"/>
<path d="M3895 2429 c-4 -6 -5 -12 -2 -15 2 -3 7 2 10 11 7 17 1 20 -8 4z"/>
<path d="M3912 2401 c-6 -17 -9 -31 -6 -31 7 0 25 52 20 57 -2 2 -8 -10 -14
-26z"/>
<path d="M321 2384 c0 -11 3 -14 6 -6 3 7 2 16 -1 19 -3 4 -6 -2 -5 -13z"/>
<path d="M474 2322 c-27 -26 -59 -60 -72 -77 -18 -25 -23 -28 -32 -15 -9 12
-10 11 -5 -7 4 -13 -2 -38 -14 -62 -23 -45 -44 -124 -30 -115 5 3 9 14 9 26 0
24 42 118 52 118 5 0 8 7 8 15 0 8 31 47 70 87 79 82 88 101 14 30z"/>
<path d="M324 2352 c4 -7 10 -25 12 -40 3 -15 10 -31 16 -37 7 -7 9 -7 5 1 -3
6 -8 23 -11 39 -3 15 -11 33 -17 39 -9 8 -10 8 -5 -2z"/>
<path d="M430 2063 c0 -6 8 -17 18 -24 16 -13 16 -13 2 6 -8 11 -16 22 -17 24
-2 2 -3 0 -3 -6z"/>
<path d="M315 2021 c-3 -5 -2 -12 3 -15 5 -3 9 1 9 9 0 17 -3 19 -12 6z"/>
<path d="M4032 1980 c0 -14 2 -19 5 -12 2 6 2 18 0 25 -3 6 -5 1 -5 -13z"/>
<path d="M327 1930 c9 -33 19 -60 23 -60 4 0 2 17 -6 38 -7 20 -13 47 -14 60
0 12 -4 22 -9 22 -5 0 -2 -27 6 -60z"/>
<path d="M370 1828 c26 -42 75 -100 61 -72 -5 11 -16 26 -24 33 -8 6 -20 25
-27 41 -7 17 -16 30 -21 30 -5 0 1 -15 11 -32z"/>
<path d="M3924 1758 l-29 -33 33 29 c30 28 37 36 29 36 -2 0 -16 -15 -33 -32z"/>
<path d="M490 1696 c0 -2 8 -10 18 -17 15 -13 16 -12 3 4 -13 16 -21 21 -21
13z"/>
<path d="M3940 1611 c0 -6 4 -13 10 -16 6 -3 7 1 4 9 -7 18 -14 21 -14 7z"/>
<path d="M3957 1559 c4 -13 8 -18 11 -10 2 7 -1 18 -6 23 -8 8 -9 4 -5 -13z"/>
<path d="M3964 1516 c1 -8 5 -18 8 -22 4 -3 5 1 4 10 -1 8 -5 18 -8 22 -4 3
-5 -1 -4 -10z"/>
<path d="M4058 1485 c2 -14 6 -25 8 -25 2 0 4 11 4 25 0 14 -4 25 -9 25 -4 0
-6 -11 -3 -25z"/>
<path d="M472 1480 c0 -14 2 -19 5 -12 2 6 2 18 0 25 -3 6 -5 1 -5 -13z"/>
<path d="M3969 1458 c-4 -13 -10 -72 -6 -68 7 7 17 70 11 70 -2 0 -4 -1 -5 -2z"/>
<path d="M466 1393 c7 -78 14 -81 11 -5 -1 34 -5 62 -9 62 -4 0 -5 -26 -2 -57z"/>
<path d="M4060 1436 c0 -23 16 -27 17 -5 1 10 -2 19 -8 19 -5 0 -9 -6 -9 -14z"/>
<path d="M4066 1387 c3 -10 9 -15 12 -12 3 3 0 11 -7 18 -10 9 -11 8 -5 -6z"/>
<path d="M391 1305 c0 -40 3 -76 8 -79 4 -3 8 31 7 74 -1 101 -14 105 -15 5z"/>
<path d="M3946 1371 c-4 -7 -5 -15 -2 -18 9 -9 19 4 14 18 -4 11 -6 11 -12 0z"/>
<path d="M4062 1299 c0 -17 2 -28 5 -25 9 9 12 56 4 56 -5 0 -8 -14 -9 -31z"/>
<path d="M482 1295 c6 -14 13 -24 14 -22 6 6 -9 47 -17 47 -5 0 -3 -11 3 -25z"/>
<path d="M500 1254 c0 -22 96 -122 142 -147 30 -16 31 -16 8 0 -30 21 -108
100 -132 134 -9 13 -17 19 -18 13z"/>
<path d="M4056 1245 c-3 -8 -1 -15 4 -15 6 0 10 7 10 15 0 8 -2 15 -4 15 -2 0
-6 -7 -10 -15z"/>
<path d="M4050 1206 c0 -8 -3 -21 -6 -30 -3 -9 -2 -16 3 -16 5 0 10 14 11 30
1 17 0 30 -3 30 -3 0 -5 -6 -5 -14z"/>
<path d="M400 1190 c0 -11 4 -20 9 -20 5 0 7 9 4 20 -3 11 -7 20 -9 20 -2 0
-4 -9 -4 -20z"/>
<path d="M415 1111 c7 -28 13 -54 13 -57 0 -3 3 -8 6 -11 9 -9 7 2 -5 55 -7
26 -15 51 -20 56 -4 5 -2 -14 6 -43z"/>
<path d="M4034 1133 c-3 -10 -12 -35 -20 -57 -8 -21 -13 -40 -11 -43 3 -2 10
11 17 29 20 55 29 88 24 88 -3 0 -7 -8 -10 -17z"/>
<path d="M690 1080 c0 -5 5 -10 11 -10 5 0 7 5 4 10 -3 6 -8 10 -11 10 -2 0
-4 -4 -4 -10z"/>
<path d="M456 973 c41 -95 85 -161 154 -230 57 -58 166 -139 210 -155 8 -4 41
-18 73 -32 31 -14 57 -21 57 -16 0 6 -6 10 -13 10 -19 0 -152 66 -205 102
-114 77 -220 204 -264 320 -13 32 -26 58 -30 58 -4 0 4 -26 18 -57z"/>
<path d="M3958 964 c-69 -124 -230 -256 -400 -329 -37 -16 -66 -31 -63 -33 2
-2 41 13 87 33 88 39 190 103 249 157 43 40 139 158 139 172 0 5 7 18 17 28 9
10 14 21 10 24 -3 3 -20 -20 -39 -52z"/>
<path d="M3430 590 c-13 -8 -12 -10 3 -10 9 0 17 5 17 10 0 12 -1 12 -20 0z"/>
<path d="M3388 573 c7 -3 16 -2 19 1 4 3 -2 6 -13 5 -11 0 -14 -3 -6 -6z"/>
<path d="M3310 560 c-12 -7 -10 -9 7 -7 12 0 19 5 17 9 -6 10 -6 10 -24 -2z"/>
<path d="M3200 540 c-9 -6 -10 -10 -3 -10 6 0 15 5 18 10 8 12 4 12 -15 0z"/>
<path d="M985 526 c17 -8 32 -12 34 -10 7 6 -2 11 -34 17 l-30 6 30 -13z"/>
<path d="M3116 528 c3 -4 11 -5 19 -1 21 7 19 12 -4 10 -11 0 -18 -5 -15 -9z"/>
<path d="M1040 511 c8 -4 31 -11 50 -14 21 -4 29 -3 20 2 -8 4 -31 11 -50 14
-21 4 -29 3 -20 -2z"/>
<path d="M1135 490 c3 -5 8 -10 11 -10 2 0 4 5 4 10 0 6 -5 10 -11 10 -5 0 -7
-4 -4 -10z"/>
<path d="M1400 480 c0 -5 5 -10 11 -10 5 0 7 5 4 10 -3 6 -8 10 -11 10 -2 0
-4 -4 -4 -10z"/>
<path d="M2866 411 c-3 -4 6 -8 20 -9 13 -1 24 0 24 2 0 7 -40 14 -44 7z"/>
<path d="M2920 405 c0 -8 29 -12 39 -5 9 5 4 8 -13 8 -14 0 -26 -2 -26 -3z"/>
<path d="M1915 215 c-40 -14 -40 -14 -5 -8 19 3 42 9 50 14 22 12 1 9 -45 -6z"/>
<path d="M1790 200 c0 -10 68 -11 74 -1 3 5 -12 8 -34 8 -22 0 -40 -3 -40 -7z"/>
</g>
</svg>
